PathFileType	4	(X/Y/Z)	C:\Users\u0145647\OneDrive - KU Leuven\KU Leuven\c3d2osim\CP4\T0\Data\Processed\ViconC3D_CP4_2\CP4_T0_06_gapFilled.trc
DataRate	CameraRate	NumFrames	NumMarkers	Units	OrigDataRate	OrigDataStartFrame	OrigNumFrames
100.000000	100.000000	6	47	mm	100.000000	190	756
Frame#	Time	C7			T10			CLAV			STRN			LSHO			RSHO			RBAK			LASI			RASI			LPSI			RPSI			LLAT			RLAT			LF1			LF2			LF3			LTHI			LKNE			LMEK			RF1			RF2			RF3			RTHI			RKNE			RMEK			LT1			LT2			LT3			LTIB			LANK			LMM			RT1			RT2			RT3			RTIB			RANK			RMM			LHEE			LSTL			LLCA			LTOE			LCM5			RHEE			RSTL			RLCA			RTOE			RCM5
		X1	Y1	Z1	X2	Y2	Z2	X3	Y3	Z3	X4	Y4	Z4	X5	Y5	Z5	X6	Y6	Z6	X7	Y7	Z7	X8	Y8	Z8	X9	Y9	Z9	X10	Y10	Z10	X11	Y11	Z11	X12	Y12	Z12	X13	Y13	Z13	X14	Y14	Z14	X15	Y15	Z15	X16	Y16	Z16	X17	Y17	Z17	X18	Y18	Z18	X19	Y19	Z19	X20	Y20	Z20	X21	Y21	Z21	X22	Y22	Z22	X23	Y23	Z23	X24	Y24	Z24	X25	Y25	Z25	X26	Y26	Z26	X27	Y27	Z27	X28	Y28	Z28	X29	Y29	Z29	X30	Y30	Z30	X31	Y31	Z31	X32	Y32	Z32	X33	Y33	Z33	X34	Y34	Z34	X35	Y35	Z35	X36	Y36	Z36	X37	Y37	Z37	X38	Y38	Z38	X39	Y39	Z39	X40	Y40	Z40	X41	Y41	Z41	X42	Y42	Z42	X43	Y43	Z43	X44	Y44	Z44	X45	Y45	Z45	X46	Y46	Z46	X47	Y47	Z47

190	1.89	1653.2	1420.4	-222.14	1663.8	1156.4	-192.35	1531.4	1346.3	-221.14	1486.1	1200	-209.79	1582.3	1395	-7.6371	1621.5	1362.5	-411.36	1692	1318.5	-331.31	1483.3	900.03	-113.08	1501.8	910.84	-313.42	1658.5	942.08	-157.88	1667.2	952.73	-231.98	1536.8	971.07	-54.77	1566.3	981.56	-352.02	1506	634.64	-45.167	1521.3	678.07	-44.297	1538.3	629.75	-34.409	1516.2	561.79	10.525	1522.5	426.44	-50.096	NaN	NaN	NaN	1528.5	634.81	-339	1512.4	669.36	-344.87	1572.3	662.15	-343.75	1511.1	569.6	-367.78	1473.1	460.38	-279.43	NaN	NaN	NaN	1681.2	341.68	-27.057	1624	335.77	-45.776	1650.7	374.94	-27.353	1698.2	252.68	-15.12	1878.2	198.14	-60.471	1857.6	211.71	-143.56	1511.8	314.41	-297.52	1484.6	353.62	-278.37	1529.3	363.95	-302.83	1499.5	239.78	-334.1	1566.7	72.92	-278.48	1566.6	89.766	-192.13	1918.1	237.46	-97.266	1882.3	196.6	-142.99	1896.8	178.21	-68.592	1838.3	91.953	-141.72	1855.7	74.031	-101.89	1622.3	70.939	-245.85	1569.8	53.512	-196.27	1561.9	47.922	-274.75	1444.1	47.809	-231.08	1462.6	34.864	-287.92
191	1.9	1642.1	1422	-223.18	1653.2	1158.2	-192.61	1520.7	1347.7	-221.18	1475.3	1201.6	-209.6	1573.3	1396.3	-7.8781	1608.7	1363.5	-412.2	1680	1320.1	-332.81	1472.9	901.18	-113.63	1492.6	912.04	-313.71	1648.3	944.02	-157.08	1657.2	954.86	-231.14	1526.1	972.22	-54.671	1556.4	983.76	-351.55	1488.7	637.32	-44.098	1505.6	680.46	-43.939	1521	631.81	-33.784	1498	564.59	11.63	1500	429.22	-48.907	NaN	NaN	NaN	1523.6	635.44	-339.49	1506.6	669.62	-345.31	1566.6	663.48	-343.81	1507.8	569.99	-368.16	1470.4	460.08	-280.24	NaN	NaN	NaN	1657.1	342.45	-26.348	1599.8	337.51	-44.192	1627.2	376.21	-26.604	1673.2	252.96	-14.649	1852.8	198.05	-59.537	1832.4	211.02	-142.74	1509.9	314.38	-298.18	1482.4	353.44	-278.98	1527.3	364.06	-303.48	1498.4	239.72	-334.83	1566.3	73.219	-278.99	1566.4	90.105	-192.66	1893.7	236.15	-96.735	1856.9	195.6	-141.92	1871.1	177.51	-67.291	1810.1	92.319	-139.07	1827.3	74.493	-99.187	1622.1	71.49	-246.48	1569.8	53.844	-196.68	1561.7	48.138	-275.21	1444.1	47.824	-231.4	1462.6	34.699	-288.19
192	1.91	1631	1423.6	-224.11	1642.7	1160	-192.77	1509.6	1349.4	-221.13	1464.5	1203.3	-209.12	1564.1	1397.8	-8.0371	1596.2	1364.9	-413.06	1668.4	1321.8	-334.22	1462.6	902.58	-114.17	1483.5	913.43	-313.85	1638.1	945.86	-156.23	1647.4	956.76	-230.38	1515.5	973.77	-54.886	1546.9	985.5	-351.4	1472.3	640.42	-43.015	1490.6	683.07	-43.234	1504.1	633.96	-33.201	1479.8	567.24	12.305	1477.3	432.29	-48.312	NaN	NaN	NaN	1518.8	635.79	-339.36	1501.4	669.8	-345.64	1561.6	664.76	-343.31	1504.8	570.15	-368.08	1467.5	459.79	-280.88	NaN	NaN	NaN	1633.1	343.95	-25.6	1575.6	339.17	-43.642	1603.7	378.01	-25.876	1648	254.12	-13.572	1826.6	196.8	-58.554	1806.1	209.25	-141.9	1508.1	314.38	-298.71	1480.4	353.19	-279.51	1525.1	364.22	-304.04	1497.1	239.59	-335.46	1566.1	73.596	-279.42	1566.5	90.517	-193.77	1868.6	233.72	-96.791	1830.5	193.25	-141.07	1844.8	176.76	-65.607	1780.4	91.855	-135.52	1796.9	74.098	-95.632	1621.8	72.111	-247.34	1569.7	54.213	-197.13	1561.6	48.421	-275.68	1444.1	47.755	-231.56	1462.5	34.601	-288.43
193	1.92	1620	1425.2	-224.99	1632.4	1161.8	-193.03	1498.6	1350.5	-221.28	1454	1204.6	-208.82	1554.8	1399.3	-8.3639	1583.9	1366.2	-413.65	1656.7	1323.5	-335.38	1452.5	904.11	-114.95	1474.7	914.46	-314.05	1628.1	947.59	-155.46	1637.8	958.33	-229.46	1504.8	975.73	-54.998	1537.9	986.58	-350.97	1455.8	643.91	-41.854	1475.6	685.9	-42.677	1487.7	636.7	-32.45	1462.2	569.76	12.292	1454.9	436.05	-48.153	NaN	NaN	NaN	1514.4	636.32	-339.47	1496.2	670	-346.06	1556.5	666.08	-342.7	1502	570.11	-368.08	1464.5	459.51	-281.27	NaN	NaN	NaN	1608.7	345.25	-25.521	1551.2	341.4	-43.328	1580.2	380.04	-26.002	1622.2	256.59	-12.473	1799.3	194.9	-57.8	1778.7	206.33	-141.31	1506.1	314.4	-299.19	1478.1	353.25	-279.94	1522.9	364.48	-304.47	1495.8	239.62	-335.97	1565.8	74.064	-279.94	1566.2	90.981	-194.29	1842.3	230.14	-97.224	1802.9	189.5	-140.49	1817.2	174.61	-64.792	1748.9	90.073	-131.06	1765.7	73.229	-91.602	1621.6	72.856	-248.13	1569.8	54.852	-197.9	1561.4	48.762	-276.18	1444.1	47.732	-231.77	1462.4	34.375	-288.67
194	1.93	1609.1	1426.9	-225.76	1622.3	1163.5	-193.06	1487.7	1351.9	-220.82	1443.7	1205.9	-208.65	1545.3	1400.9	-8.4208	1571.7	1367.4	-414.07	1645.4	1325.3	-336.39	1442.5	905.66	-115.6	1466.7	915.05	-314.05	1618.3	949.1	-154.67	1628.5	959.78	-228.61	1494.3	977.75	-55.169	1528.9	987.62	-350.85	1439.8	647.35	-41.066	1461	688.66	-42.264	1471.3	639.29	-32.118	1444.1	573.48	13.542	1432.1	440.07	-48.193	NaN	NaN	NaN	1509.8	636.65	-339.16	1491.3	669.98	-345.9	1551.4	666.89	-341.64	1499	570.45	-367.77	1461.2	459.19	-281.56	NaN	NaN	NaN	1584.4	347	-26.019	1526.4	343.63	-42.946	1556.2	381.72	-26.587	1596	257.08	-11.782	1771.6	192.81	-57.251	1750.4	202.55	-141.05	1504	314.56	-299.59	1475.8	353.24	-280.44	1520.4	364.69	-304.84	1494.1	239.63	-336.29	1565.4	74.716	-280.57	1565.4	91.401	-194.34	1815.2	225.46	-98.2	1774.2	185.15	-140.09	1788.8	171.73	-63.895	1716.3	87.977	-126.45	1732.8	71.723	-86.48	1621.3	73.714	-248.74	1570	55.299	-198.45	1561.3	49.184	-276.68	1444	47.691	-231.94	1462.3	34.165	-288.95
195	1.94	1598.2	1428.4	-226.35	1612.5	1165.1	-193.18	1477.1	1353.1	-220.75	1433.5	1206.9	-208.38	1535.8	1402.3	-8.6879	1559.7	1368.6	-414.25	1634.3	1327.1	-337.21	1432.5	907.49	-116.06	1457.8	916.17	-314.28	1608.5	950.38	-153.77	1619.2	960.87	-227.6	1484	979.8	-55.285	1520.3	988.34	-350.45	1423.8	650.69	-40.313	1446.4	692.13	-41.655	1455.2	641.79	-31.954	1426.6	576.63	14.003	1409.6	444.29	-48.982	NaN	NaN	NaN	1504.9	636.82	-338.33	1486.1	670.18	-345.85	1546.2	667.83	-340.82	1495.4	570.54	-367.37	1457.7	459.11	-281.82	NaN	NaN	NaN	1559.9	348.49	-27.138	1501.9	346.17	-43.187	1532.9	384.27	-28.079	1569.5	259.61	-10.649	1742.3	189.13	-57.272	1721.1	197.78	-140.78	1501.9	314.79	-299.8	1473.1	353.29	-281.01	1517.7	365.18	-305.23	1492.5	239.83	-336.66	1565	75.463	-281.22	1565	92.023	-194.87	1787.4	219.65	-99.12	1744.2	179.81	-139.97	1758.6	167.86	-63.595	1682.7	85.48	-122.2	1698.2	70.14	-81.573	1621.3	74.787	-249.08	1569.6	55.775	-198.68	1561.4	49.782	-277.12	1443.9	47.635	-232.21	1462.3	34.004	-289.28
